# xmcd CD database file generated by freedbAccess_ocx
#
# Track frame offsets:
#       150
#       19350
#       35907
#
# Disc length: 636 seconds
#
# Revision: 0
# Processed by: cddbd v1.4PL0 Copyright (c) Steve Scherf et al.
# Submitted via: CDnGo 1.95
#
DISCID=24027a03
DTITLE=Garth Brooks - One Night A Day
DYEAR=1994
DGENRE=Country
TTITLE0=One Night A Day
TTITLE1=If Tomorrow Never Comes
TTITLE2=Callin' Baton Rouge
EXTD=
EXTT0=
EXTT1=
EXTT2=
PLAYORDER=
